# xmcd
#
# Track frame offsets:
#	150
#	11357
#	21824
#	35273
#	48483
#	59120
#	72108
#	84672
#	97158
#	107871
#	118733
#	132491
#	144236
#	157119
#	169361
#	182479
#	192319
#	204235
#	216028
#	225931
#	238516
#	252607
#	266537
#	279640
#	293299
#	307947
#	317998
#
# Disc length: 4385 seconds
#
# Revision: 0
# Processed by: cddbd v1.5.2PL0 Copyright (c) Steve Scherf et al.
# Submitted via: audiograbber 1.83.01
#
DISCID=88111f1b
DTITLE=Various Artist - The History Of Rhythm And Blues 1952-1957 [CD3]
DYEAR=2010
DGENRE=Blues
TTITLE0=The Clovers - One Mint Julep
TTITLE1=The Dominoes - Have Mercy Baby
TTITLE2=The Drifters - Money Honey
TTITLE3=The Moonglows - Baby Please
TTITLE4=Big John and The Buzzards - Your Cash Ain't Nothing But Trash
TTITLE5=The Du Droppers - Can't Do Sixty No More
TTITLE6=Hank Ballard and The Midnighters - Work With Me Annie
TTITLE7=The Five Royales - Baby Don't Do It
TTITLE8=The Pilgrim Travelers - Straight Street
TTITLE9=The Drifters - Ruby Baby
TTITLE10=The Spaniels - Play It Cool
TTITLE11=The Four Deuces - W-P-L-J
TTITLE12=The Peacheroos - Be Bop Baby
TTITLE13=The Cardinals - Choo Choo
TTITLE14=The Marigolds - Rollin' Stone
TTITLE15=The Queens - Oop Shoop
TTITLE16=The Jewels - Hearts Of Stone
TTITLE17=The Medallions - Buick '59
TTITLE18=The Hawkettes - Mardi Gras Mambo
TTITLE19=Tony Allen - Nite Owl
TTITLE20=Jesse Belvin - Goodnight My Love
TTITLE21=The Diablos - The Way You Dog Me
TTITLE22=The Valentines - The Woo Woo Train
TTITLE23=The Robins - Riot In Cell Block No. 9
TTITLE24=The Coasters - Down In Mexico
TTITLE25=The Crows - Gee
TTITLE26=The Chords - Sh-Boom
EXTD=
EXTT0=
EXTT1=
EXTT2=
EXTT3=
EXTT4=
EXTT5=
EXTT6=
EXTT7=
EXTT8=
EXTT9=
EXTT10=
EXTT11=
EXTT12=
EXTT13=
EXTT14=
EXTT15=
EXTT16=
EXTT17=
EXTT18=
EXTT19=
EXTT20=
EXTT21=
EXTT22=
EXTT23=
EXTT24=
EXTT25=
EXTT26=
PLAYORDER=
